<?xml version="1.0" encoding="UTF-8" standalone="no"?>
<!-- Generator: Adobe Illustrator 16.0.2, SVG Export Plug-In . SVG Version: 6.00 Build 0)  -->

<svg
   xmlns:dc="http://purl.org/dc/elements/1.1/"
   xmlns:cc="http://creativecommons.org/ns#"
   xmlns:rdf="http://www.w3.org/1999/02/22-rdf-syntax-ns#"
   xmlns:svg="http://www.w3.org/2000/svg"
   xmlns="http://www.w3.org/2000/svg"
   xmlns:sodipodi="http://sodipodi.sourceforge.net/DTD/sodipodi-0.dtd"
   xmlns:inkscape="http://www.inkscape.org/namespaces/inkscape"
   version="1.1"
   id="Layer_1"
   x="0px"
   y="0px"
   width="120"
   height="120"
   viewBox="0 0 120 120"
   enable-background="new 0 0 612 792"
   xml:space="preserve"
   inkscape:version="0.91 r13725"
   sodipodi:docname="arduinostudio-120px.svg"><metadata
     id="metadata3436"><rdf:RDF><cc:Work
         rdf:about=""><dc:format>image/svg+xml</dc:format><dc:type
           rdf:resource="http://purl.org/dc/dcmitype/StillImage" /><dc:title></dc:title></cc:Work></rdf:RDF></metadata><defs
     id="defs3434" /><sodipodi:namedview
     pagecolor="#ffffff"
     bordercolor="#666666"
     borderopacity="1"
     objecttolerance="10"
     gridtolerance="10"
     guidetolerance="10"
     inkscape:pageopacity="0"
     inkscape:pageshadow="2"
     inkscape:window-width="1867"
     inkscape:window-height="1056"
     id="namedview3432"
     showgrid="false"
     inkscape:zoom="1.1603535"
     inkscape:cx="49.931027"
     inkscape:cy="269.60202"
     inkscape:window-x="53"
     inkscape:window-y="24"
     inkscape:window-maximized="1"
     inkscape:current-layer="Layer_1"
     fit-margin-top="0"
     fit-margin-left="0"
     fit-margin-right="0"
     fit-margin-bottom="0" /><g
     id="g3407"
     transform="matrix(0.25717849,0,0,0.25717849,-14.324585,-51.17852)"><g
       id="g3409"><linearGradient
         id="SVGID_1_"
         gradientUnits="userSpaceOnUse"
         x1="-134.2583"
         y1="249.8472"
         x2="-134.2583"
         y2="350.1391"
         gradientTransform="matrix(4.6667,0,0,4.6667,915.5417,-1022.6841)"><stop
           offset="0"
           style="stop-color:#85C0C1"
           id="stop3412" /><stop
           offset="0.9485"
           style="stop-color:#007481"
           id="stop3414" /></linearGradient><circle
         cx="289"
         cy="432.207"
         r="225.399"
         id="circle3416"
         style="fill:url(#SVGID_1_)" /><path
         d="M 289,665.602 C 160.214,665.602 55.699,561.087 55.699,432.301 55.699,303.515 160.214,199 289,199 417.786,199 522.301,303.515 522.301,432.301 522.301,561.087 417.88,665.602 289,665.602 Z m 0,-450.328 c -119.849,0 -216.932,97.46 -216.932,216.933 0,119.942 97.554,217.025 217.026,217.025 119.472,0 217.026,-97.553 217.026,-217.025 C 506.026,312.264 408.943,215.274 289,215.274 Z"
         id="path3418"
         inkscape:connector-curvature="0"
         style="fill:#ffffff" /></g><g
       id="g3420"><rect
         x="176.771"
         y="424.116"
         width="51.646"
         height="16.650999"
         id="rect3422"
         style="fill:#ffffff" /><polygon
         points="383.167,458.265 383.167,440.768 400.664,440.768 400.664,424.116 383.167,424.116 383.167,406.619 366.516,406.619 366.516,424.116 349.019,424.116 349.019,440.768 366.516,440.768 366.516,458.265 "
         id="polygon3424"
         style="fill:#ffffff" /><path
         d="m 377.523,515.085 c -4.422,0 -8.844,-0.282 -13.266,-0.94 -36.781,-5.269 -61.43,-31.703 -75.258,-52.022 -13.829,20.319 -38.476,46.848 -75.258,52.116 -4.421,0.658 -8.843,0.94 -13.264,0.94 -22.954,0 -44.402,-8.561 -60.583,-23.988 -16.369,-15.616 -25.306,-36.595 -25.306,-58.89 0,-22.39 9.031,-43.273 25.4,-58.89 16.18,-15.428 37.723,-23.988 60.583,-23.988 4.327,0 8.843,0.282 13.17,0.94 36.876,5.268 61.43,31.797 75.258,52.116 13.828,-20.319 38.477,-46.849 75.258,-52.116 4.422,-0.658 8.844,-0.94 13.171,-0.94 22.954,0 44.402,8.561 60.583,23.988 16.369,15.616 25.399,36.595 25.399,58.89 0,22.39 -9.03,43.273 -25.306,58.89 -16.178,15.427 -37.721,23.894 -60.581,23.894 m -72.248,-82.878 c 7.148,13.734 28.409,47.883 63.122,52.868 3.011,0.471 6.114,0.659 9.126,0.659 31.138,0 56.537,-23.989 56.537,-53.527 0,-29.539 -25.399,-53.528 -56.537,-53.528 -3.012,0 -6.021,0.188 -9.031,0.659 -34.807,4.985 -55.973,39.134 -63.217,52.869 z M 200.478,378.679 c -31.232,0 -56.632,23.989 -56.632,53.528 0,29.538 25.399,53.527 56.538,53.527 3.01,0 6.021,-0.188 9.125,-0.659 34.713,-4.985 55.974,-39.134 63.123,-52.868 -7.149,-13.735 -28.41,-47.884 -63.123,-52.869 -3.011,-0.471 -6.021,-0.659 -9.031,-0.659 z"
         id="path3426"
         inkscape:connector-curvature="0"
         style="fill:#ffffff" /><path
         d="m 446.102,362.404 2.822,0 c 1.317,0 2.258,-0.188 2.822,-0.658 0.471,-0.377 0.753,-0.941 0.753,-1.6 0,-0.471 -0.095,-0.847 -0.376,-1.129 -0.283,-0.376 -0.564,-0.564 -1.035,-0.752 -0.471,-0.188 -1.223,-0.282 -2.352,-0.282 l -2.635,0 0,4.421 z m -2.352,8.185 0,-14.581 4.986,0 c 1.693,0 2.916,0.094 3.668,0.376 0.753,0.282 1.412,0.753 1.788,1.411 0.47,0.658 0.658,1.411 0.658,2.164 0,1.034 -0.376,1.975 -1.129,2.822 -0.753,0.752 -1.787,1.223 -3.011,1.316 0.471,0.188 0.941,0.471 1.224,0.753 0.564,0.564 1.317,1.505 2.163,2.916 l 1.788,2.822 -2.917,0 -1.316,-2.258 c -1.035,-1.787 -1.787,-2.916 -2.445,-3.387 -0.471,-0.376 -1.035,-0.471 -1.883,-0.471 l -1.41,0 0,6.209 -2.164,0 0,-0.092 z m 5.927,-18.815 c -1.882,0 -3.763,0.47 -5.55,1.505 -1.788,0.94 -3.199,2.352 -4.234,4.14 -1.034,1.787 -1.505,3.669 -1.505,5.644 0,1.976 0.471,3.857 1.505,5.645 1.035,1.788 2.353,3.199 4.14,4.14 1.788,1.034 3.669,1.505 5.645,1.505 1.976,0 3.856,-0.471 5.645,-1.505 1.787,-1.035 3.198,-2.352 4.14,-4.14 1.034,-1.787 1.504,-3.669 1.504,-5.645 0,-1.975 -0.47,-3.856 -1.504,-5.644 -1.035,-1.788 -2.447,-3.199 -4.234,-4.14 -1.79,-1.035 -3.67,-1.505 -5.552,-1.505 z m 0,-2.257 c 2.258,0 4.516,0.564 6.679,1.787 2.164,1.129 3.857,2.822 5.08,4.986 1.223,2.163 1.787,4.421 1.787,6.772 0,2.353 -0.564,4.61 -1.787,6.68 -1.223,2.164 -2.822,3.856 -4.985,4.985 -2.164,1.224 -4.422,1.788 -6.773,1.788 -2.353,0 -4.61,-0.564 -6.773,-1.788 -2.163,-1.223 -3.856,-2.821 -4.985,-4.985 -1.223,-2.164 -1.787,-4.422 -1.787,-6.68 0,-2.352 0.564,-4.609 1.787,-6.772 1.223,-2.164 2.916,-3.857 5.08,-4.986 2.161,-1.223 4.419,-1.787 6.677,-1.787 z"
         id="path3428"
         inkscape:connector-curvature="0"
         style="fill:#ffffff" /><path
         d="m 374.042,349.422 c -3.387,0.095 -6.491,0.377 -9.878,0.848 -36.782,5.268 -61.43,31.796 -75.258,52.116 -0.282,-0.377 -16.651,29.257 -16.275,29.915 -7.244,13.734 -28.41,47.883 -63.123,52.869 -0.282,0 -6.491,0.47 -6.491,0.564 0.094,10.159 0,24.271 0,29.351 0,0 0,0 0,0.094 2.446,0 4.892,-0.188 7.337,-0.47 0.094,-0.095 2.917,-0.564 3.199,-0.471 0.094,0 0.094,0 0.188,0 36.876,-5.269 61.43,-31.797 75.258,-52.116 0.188,0.188 16.463,-29.634 16.275,-29.915 7.243,-13.735 28.409,-47.884 63.122,-52.869 1.976,-0.282 3.763,-0.471 5.739,-0.564 -0.093,-0.095 0.189,-26.53 -0.093,-29.352 z"
         id="path3430"
         inkscape:connector-curvature="0"
         style="fill:#eeb111" /></g></g></svg>